<svg xmlns="http://www.w3.org/2000/svg" xmlns:xlink="http://www.w3.org/1999/xlink" width="782.814" height="339.896" viewBox="0 0 782.814 339.896">
  <defs>
    <clipPath id="clip-path">
      <rect id="Rectangle_44" data-name="Rectangle 44" width="339.896" height="782.814" fill="#2cbc6f"/>
    </clipPath>
    <clipPath id="clip-path-3">
      <rect id="Rectangle_42" data-name="Rectangle 42" width="336.589" height="782.814" fill="#2cbc6f"/>
    </clipPath>
  </defs>
  <g id="Group_624" data-name="Group 624" transform="translate(-429.446 -88.052)">
    <g id="Group_447" data-name="Group 447" transform="translate(1212.26 88.052) rotate(90)">
      <g id="Group_73" data-name="Group 73" transform="translate(0 0)" clip-path="url(#clip-path)">
        <path id="Path_50" data-name="Path 50" d="M109.893,0,95.8,16.6,10.6,17.347,0,29.832V755.763l22.971,27.051H217.6l11.486-13.526H300.4L313.207,754.2V287.267l23.382-27.535V32.8L308.732,0Z" transform="translate(0 0)" fill="#2cbc6f"/>
        <g id="Group_72" data-name="Group 72">
          <g id="Group_71" data-name="Group 71" clip-path="url(#clip-path)">
            <g id="Group_70" data-name="Group 70" transform="translate(0)" opacity="0.1">
              <g id="Group_69" data-name="Group 69">
                <g id="Group_68" data-name="Group 68" clip-path="url(#clip-path-3)">
                  <path id="Path_51" data-name="Path 51" d="M10.6,17.347,0,29.832V755.763l22.971,27.051H217.6l11.486-13.526H300.4L313.207,754.2V287.267l23.382-27.534V32.8L308.732,0H109.893L95.8,16.6Z" transform="translate(0 0)" fill="#2cbc6f"/>
                </g>
              </g>
            </g>
          </g>
        </g>
        <path id="Path_52" data-name="Path 52" d="M0,0V16.578l.106,2.7L8.413,9.495H86.851L94.913,0Z" transform="translate(0 0)" fill="#2cbc6f"/>
        <path id="Path_53" data-name="Path 53" d="M0,21.411v13.2L18.29,13.076,18.181,0Z" transform="translate(321.605 272.427)" fill="#2cbc6f"/>
        <path id="Path_54" data-name="Path 54" d="M0,21.41v13.2L18.29,13.076,18.181,0Z" transform="translate(321.605 295.68)" fill="#2cbc6f"/>
        <path id="Path_55" data-name="Path 55" d="M0,21.41v13.2L18.29,13.076,18.181,0Z" transform="translate(321.605 318.933)" fill="#2cbc6f"/>
        <path id="Path_56" data-name="Path 56" d="M0,21.41v13.2L18.29,13.076,18.181,0Z" transform="translate(321.605 342.186)" fill="#2cbc6f"/>
        <path id="Path_57" data-name="Path 57" d="M0,21.41v13.2L18.29,13.076,18.181,0Z" transform="translate(321.605 365.439)" fill="#2cbc6f"/>
        <path id="Path_58" data-name="Path 58" d="M0,21.41v13.2L18.29,13.076,18.181,0Z" transform="translate(321.605 388.692)" fill="#2cbc6f"/>
        <path id="Path_59" data-name="Path 59" d="M0,21.41v13.2L18.29,13.076,18.181,0Z" transform="translate(321.605 411.945)" fill="#2cbc6f"/>
        <path id="Path_60" data-name="Path 60" d="M0,21.41v13.2L18.29,13.076,18.181,0Z" transform="translate(321.605 435.199)" fill="#2cbc6f"/>
        <path id="Path_61" data-name="Path 61" d="M0,21.41v13.2L18.29,13.076,18.181,0Z" transform="translate(321.605 458.451)" fill="#2cbc6f"/>
        <path id="Path_62" data-name="Path 62" d="M0,21.411V267.083l18.29-21.539L18.181,0Z" transform="translate(321.605 481.704)" fill="#2cbc6f"/>
      </g>
    </g>
    <g id="search-interface-symbol" transform="translate(1136.622 123.422)" opacity="0.08">
      <g id="_x34__4_" transform="translate(0.006)">
        <g id="Group_326" data-name="Group 326" transform="translate(0)">
          <path id="Path_253" data-name="Path 253" d="M17.32,16.006l-4.513-4.3a6.8,6.8,0,0,0,1.908-4.7A7.188,7.188,0,0,0,7.36,0,7.187,7.187,0,0,0,.006,7.008,7.187,7.187,0,0,0,7.36,14.017a7.549,7.549,0,0,0,4.629-1.565l4.531,4.317a.585.585,0,0,0,.8,0A.522.522,0,0,0,17.32,16.006ZM7.36,12.939a6.082,6.082,0,0,1-6.223-5.93A6.082,6.082,0,0,1,7.36,1.078a6.082,6.082,0,0,1,6.223,5.93A6.082,6.082,0,0,1,7.36,12.939Z" transform="translate(-0.006 0)" fill="#fff"/>
        </g>
      </g>
    </g>
    <line id="Line_18" data-name="Line 18" x1="641" transform="translate(513.5 148.5)" fill="none" stroke="#fff" stroke-width="0.5" opacity="0.14"/>
  </g>
</svg>
